<svg version="1.1" id="Layer_1" xmlns="http://www.w3.org/2000/svg" xmlns:xlink="http://www.w3.org/1999/xlink" x="0px" y="0px"
	 width="100%" viewBox="0 0 512 512" enable-background="new 0 0 512 512" xml:space="preserve">
<path fill="#FFFFFF" opacity="1.000000" stroke="none" 
	d="
M240.000000,513.000000 
	C161.352402,513.000000 83.204765,512.974854 5.057334,513.087280 
	C1.760049,513.091980 0.896012,512.600647 0.898467,509.059113 
	C1.014910,341.100159 1.017339,173.141113 0.889464,5.182201 
	C0.886579,1.392591 1.892005,0.916225 5.315855,0.918133 
	C173.108200,1.011642 340.900574,1.012008 508.692902,0.916125 
	C512.140442,0.914155 513.111572,1.425631 513.108765,5.190982 
	C512.983032,172.983276 512.983215,340.775665 513.104248,508.567993 
	C513.107056,512.470093 512.060364,513.091980 508.434021,513.087402 
	C419.122803,512.975708 329.811371,513.000000 240.000000,513.000000 
z"/>
<path fill="#1D8ECD" opacity="1.000000" stroke="none" 
	d="
M313.561432,150.008636 
	C321.009918,153.877991 327.906799,157.885513 334.938293,161.641052 
	C337.336609,162.921982 336.900177,164.850677 336.903137,166.773682 
	C336.924316,180.773590 337.050873,194.775650 336.834198,208.772232 
	C336.766296,213.160263 337.873352,213.861633 341.664124,211.223999 
	C343.472961,212.194519 344.087891,213.771927 344.163177,215.412659 
	C344.478394,222.281616 345.293945,229.183258 343.215820,236.383118 
	C338.557281,240.370300 337.929260,245.229279 338.371246,250.543243 
	C338.589691,253.169586 338.659821,255.858826 338.352997,258.466309 
	C337.881653,262.472076 340.167114,264.947510 342.817078,267.831268 
	C343.581726,273.602020 344.319061,278.982239 341.939392,284.564941 
	C339.125824,286.045471 338.108185,287.941528 338.349457,290.777710 
	C338.571625,293.389282 338.569641,296.047424 338.365112,298.661499 
	C337.838440,305.393005 338.113983,311.749146 344.945435,316.154053 
	C345.934479,322.280457 345.540009,328.022156 345.396240,333.752289 
	C345.342285,335.902771 344.895721,338.028961 342.228577,339.165466 
	C337.401703,336.737549 332.823303,334.671906 328.760101,331.861420 
	C324.950470,329.226349 321.732727,328.914612 318.176239,331.948822 
	C317.186066,332.793610 315.882996,333.271667 314.375458,333.966614 
	C311.711884,333.789642 311.813446,331.870850 311.555328,330.320709 
	C311.254791,328.515625 311.376373,326.668854 311.376251,324.838989 
	C311.372467,269.597107 311.359772,214.355194 311.409210,159.113358 
	C311.411957,156.036804 310.658813,152.727036 313.561432,150.008636 
z"/>
<path fill="#0E72B9" opacity="1.000000" stroke="none" 
	d="
M207.254425,243.363388 
	C205.031158,244.810455 205.042740,246.591629 205.046265,248.482498 
	C205.079453,266.254700 205.251999,284.030151 204.949951,301.797272 
	C204.861420,307.004791 209.150070,307.009399 211.903687,309.430054 
	C213.914902,312.875305 212.452286,316.222198 212.553513,319.485168 
	C212.697617,324.131042 212.675797,328.788116 212.538223,333.437164 
	C212.475601,335.553955 212.685883,337.839417 210.075653,339.252747 
	C204.511444,335.210602 199.885696,336.266785 194.960800,339.881042 
	C191.102249,342.712677 186.672028,344.767181 182.487244,347.151947 
	C177.853256,349.792664 177.834259,349.785187 177.833359,344.229645 
	C177.828278,312.957733 177.840744,281.685791 177.805115,250.413910 
	C177.803085,248.627609 178.306747,246.755844 177.091370,244.711670 
	C175.868042,242.802109 175.457275,241.070465 175.444931,239.213501 
	C175.401154,232.626022 175.337448,226.038239 175.484924,219.451797 
	C175.525604,217.634598 175.700089,215.811096 177.577942,214.197998 
	C180.476212,215.275711 183.223785,216.239929 185.340973,217.973862 
	C189.641846,221.496216 193.460541,220.998505 197.676941,217.884979 
	C200.314072,215.937637 203.364090,214.549423 206.579254,212.831924 
	C207.439423,213.195541 207.978607,213.720749 208.021896,214.366882 
	C208.661041,223.905029 209.571640,233.452209 207.254425,243.363388 
z"/>
<path fill="#0258A6" opacity="1.000000" stroke="none" 
	d="
M83.278900,341.844727 
	C71.392242,335.632782 59.867031,329.027069 48.263252,322.562347 
	C46.318089,321.478699 45.960697,320.103882 45.963726,318.117218 
	C46.007370,289.481537 46.040928,260.845581 45.917328,232.210403 
	C45.905525,229.475250 47.284538,228.475708 49.235008,227.364288 
	C59.896820,221.288925 70.522018,215.149323 81.506943,208.975845 
	C84.768883,209.258331 84.395844,211.683655 84.428352,213.471161 
	C84.576569,221.620346 84.729782,229.773560 84.215469,238.343353 
	C73.819832,242.159851 72.386215,249.632645 73.009499,259.314270 
	C73.851852,272.398621 73.509445,285.587646 73.072433,298.711670 
	C72.903191,303.794281 74.381500,306.839050 78.991508,308.664459 
	C80.671135,309.329559 82.170624,310.449554 83.954956,311.641663 
	C84.592720,321.791595 85.388504,331.668549 83.278900,341.844727 
z"/>
<path fill="#28A8DF" opacity="1.000000" stroke="none" 
	d="
M436.705536,213.236969 
	C446.274139,218.121964 455.493408,223.392471 464.777771,228.545670 
	C466.756927,229.644226 466.911072,231.227203 466.909363,233.142365 
	C466.884613,261.260254 466.857239,289.378296 466.951019,317.495880 
	C466.959564,320.053711 465.985229,321.347748 463.871002,322.517365 
	C456.457062,326.618652 449.139984,330.895081 441.435913,335.191345 
	C439.156311,333.460175 439.518372,331.042969 439.484497,328.783447 
	C439.405396,323.515076 439.633759,318.235443 438.631836,312.542725 
	C438.440521,304.546844 438.123871,297.020874 438.928345,289.067749 
	C441.486267,282.008636 441.079254,275.334991 439.246765,268.231201 
	C437.910126,261.208038 438.613770,254.533340 438.579590,247.889801 
	C438.561523,244.384949 437.928802,241.315125 435.301727,238.317963 
	C435.837952,229.802979 434.551025,221.611526 436.705536,213.236969 
z"/>
<path fill="#1680C3" opacity="1.000000" stroke="none" 
	d="
M238.712097,293.230499 
	C233.178680,291.289246 231.604355,287.712311 232.154663,282.319580 
	C232.876831,275.242676 229.698868,266.813812 233.304138,261.325287 
	C236.748810,256.081238 244.915375,254.091660 250.647751,250.150009 
	C255.362335,246.908218 259.375793,246.525406 263.978973,250.227127 
	C266.669098,252.390442 269.796143,254.241119 273.018005,255.466049 
	C280.416321,258.278809 283.285553,263.121704 282.195221,271.053070 
	C281.498688,276.119843 281.962524,281.363098 282.110901,286.521332 
	C282.176544,288.803009 281.436340,290.121521 279.394257,291.241211 
	C272.833893,294.838226 266.338257,298.563751 259.945496,302.450043 
	C257.948944,303.663757 256.498322,303.597870 254.569153,302.421021 
	C249.459991,299.304199 244.222488,296.397705 238.712097,293.230499 
z"/>
<path fill="#0255A4" opacity="1.000000" stroke="none" 
	d="
M101.405586,289.877197 
	C100.976677,280.815399 100.926788,272.018799 100.735855,263.225250 
	C100.692345,261.221008 101.667274,260.237640 103.215927,259.356262 
	C109.848648,255.581345 116.487564,251.814392 123.040771,247.904648 
	C124.840431,246.830948 126.226807,246.810715 128.031494,247.887619 
	C134.584106,251.797714 141.204483,255.597061 147.859085,259.331665 
	C149.672653,260.349426 150.367294,261.604065 150.337143,263.694275 
	C150.226883,271.336914 150.213928,278.983459 150.341782,286.625580 
	C150.380463,288.936768 149.544449,290.197174 147.546341,291.298920 
	C141.009552,294.903381 134.522720,298.609589 128.154694,302.502441 
	C126.134918,303.737183 124.707748,303.550110 122.805443,302.410400 
	C115.834114,298.233551 108.765465,294.219086 101.405586,289.877197 
z"/>
<path fill="#1988C8" opacity="1.000000" stroke="none" 
	d="
M313.826050,149.678085 
	C312.470062,151.238373 313.021973,153.028610 313.021271,154.622131 
	C312.996338,212.916779 312.997528,271.211426 313.017975,329.506104 
	C313.018433,330.814789 313.282440,332.123444 313.725494,333.723633 
	C303.559143,340.166077 293.090820,346.316956 282.305237,352.564636 
	C280.046478,350.607910 280.598938,348.013062 280.504425,345.584442 
	C280.221649,338.318939 281.091339,331.014648 279.756927,323.324921 
	C288.320251,317.805023 296.813446,312.607635 305.501801,307.760071 
	C308.378448,306.155060 309.258179,304.321838 309.254700,301.098206 
	C309.200897,251.512436 309.302582,201.926498 309.307037,152.340607 
	C309.307343,148.944443 309.337982,146.288696 313.826050,149.678085 
z"/>
<path fill="#137ABE" opacity="1.000000" stroke="none" 
	d="
M209.794708,339.495117 
	C211.728912,337.832123 210.872665,335.652954 210.981628,333.772461 
	C211.429321,326.045807 210.029572,318.235626 212.078476,310.134583 
	C224.275406,316.616669 236.431458,323.542297 248.791672,330.739197 
	C249.632278,331.781830 250.226990,332.627380 250.283310,333.626648 
	C250.726944,341.496399 250.918076,349.369690 250.128067,357.229523 
	C249.996582,358.537720 249.461548,359.767578 248.258545,361.147491 
	C235.249710,354.231750 222.626053,347.006134 209.794708,339.495117 
z"/>
<path fill="#0760AB" opacity="1.000000" stroke="none" 
	d="
M83.135529,342.464172 
	C83.359863,332.292297 82.366570,322.366577 83.833931,312.201416 
	C93.787224,317.374756 103.503044,322.684937 112.982224,328.388428 
	C115.188522,329.715942 117.740814,330.389435 119.912971,332.387146 
	C121.491989,334.666534 121.628265,336.955414 121.624275,339.280914 
	C121.614113,345.203400 121.792885,351.130646 121.523010,357.045929 
	C121.425285,359.187683 121.798241,361.893860 118.089142,362.308289 
	C106.179459,355.678192 94.753349,349.207672 83.135529,342.464172 
z"/>
<path fill="#1680C3" opacity="1.000000" stroke="none" 
	d="
M248.094360,361.693726 
	C249.992691,351.686798 248.601440,341.782593 248.996506,331.478455 
	C255.348434,336.266815 261.098724,334.257416 267.035034,329.945007 
	C270.763489,327.236481 275.038605,325.280426 279.409729,322.926392 
	C282.091644,323.825043 282.015350,325.844238 282.009003,327.882721 
	C281.984161,335.845062 281.994812,343.807526 281.990112,352.215668 
	C274.555328,357.026886 267.045013,361.267853 259.733917,365.828125 
	C257.305939,367.342529 255.756088,366.289246 253.905334,365.167633 
	C252.064224,364.051788 250.180405,363.006409 248.094360,361.693726 
z"/>
<path fill="#0760AB" opacity="1.000000" stroke="none" 
	d="
M84.319244,238.697983 
	C82.023651,232.168365 83.439827,225.407837 82.992294,218.739929 
	C82.785416,215.657547 83.558083,212.522659 82.174118,209.203857 
	C92.610123,202.616913 103.366158,196.313934 114.465683,189.952560 
	C116.666771,189.697891 117.163246,191.173523 117.203102,192.383163 
	C117.498840,201.359741 118.598991,210.364700 116.322800,219.709869 
	C105.583191,226.297348 95.117462,232.465591 84.319244,238.697983 
z"/>
<path fill="#0C6CB4" opacity="1.000000" stroke="none" 
	d="
M177.815094,213.687256 
	C176.028137,218.215317 177.223969,222.719940 177.047928,227.102982 
	C176.830200,232.523651 176.965088,237.958481 176.912354,243.881226 
	C166.012161,238.186111 155.147278,231.996964 144.096100,225.531616 
	C143.174561,224.133133 142.587677,222.938950 142.558624,221.575714 
	C142.407150,214.467285 142.150681,207.355148 142.747391,200.255981 
	C142.886078,198.606018 143.349030,197.001663 144.663467,195.259857 
	C155.886780,201.087814 166.751526,207.249557 177.815094,213.687256 
z"/>
<path fill="#0A67B0" opacity="1.000000" stroke="none" 
	d="
M117.814026,362.436707 
	C120.590248,361.749573 119.972733,359.435089 119.985382,357.541779 
	C120.038589,349.572601 120.037315,341.603119 120.093445,333.142273 
	C124.183464,335.752747 127.756622,334.651917 131.734344,332.033081 
	C137.478928,328.250977 143.621185,325.072906 150.413055,321.165802 
	C150.413055,331.722900 150.393448,341.302795 150.430176,350.882507 
	C150.437225,352.723694 149.227539,353.433472 147.894867,354.199493 
	C141.134109,358.085693 134.419098,362.052124 127.634445,365.895782 
	C123.353806,368.320831 121.269478,363.667358 117.814026,362.436707 
z"/>
<path fill="#137ABE" opacity="1.000000" stroke="none" 
	d="
M207.324707,243.720459 
	C206.983521,233.763489 206.977631,223.743973 206.950714,213.238998 
	C216.653015,207.054138 226.376358,201.354736 236.436203,195.512787 
	C238.092041,195.961609 239.008652,197.060364 239.085999,198.395401 
	C239.600052,207.268677 240.572754,216.162506 238.257706,225.404327 
	C227.883621,231.769241 217.771820,237.713577 207.324707,243.720459 
z"/>
<path fill="#24A0DA" opacity="1.000000" stroke="none" 
	d="
M436.833069,212.623444 
	C436.535492,220.987839 438.008423,229.164780 436.000824,237.622665 
	C433.658966,239.467468 431.869446,237.768875 430.035431,236.889740 
	C421.096313,232.604691 412.423431,227.774384 403.302368,223.857437 
	C401.455688,223.064392 399.670502,222.119095 399.657318,219.281799 
	C401.135651,212.986725 400.239471,207.006439 400.497650,201.076920 
	C400.611725,198.456833 400.145294,195.764114 401.778320,192.982269 
	C413.615509,199.234711 425.125000,205.794128 436.833069,212.623444 
z"/>
<path fill="#229AD5" opacity="1.000000" stroke="none" 
	d="
M401.896088,192.424042 
	C402.070648,199.959427 402.045715,207.243622 401.992981,214.527634 
	C401.978882,216.475281 402.396301,218.588593 399.892273,220.067200 
	C396.846649,221.131287 394.618805,219.766266 392.537384,218.585556 
	C389.301941,216.750183 386.384613,216.924393 383.237518,218.733017 
	C380.531799,220.288040 377.699188,221.644669 374.832092,222.894211 
	C373.023804,223.682312 371.128326,224.542801 369.213470,222.277527 
	C367.949341,213.520874 368.572083,205.109406 368.633423,196.257019 
	C374.469635,192.346008 380.301758,188.949310 386.032013,185.388687 
	C387.775299,184.305466 389.057587,184.792740 390.564545,185.697952 
	C394.241486,187.906601 397.975250,190.020630 401.896088,192.424042 
z"/>
<path fill="#229BD6" opacity="1.000000" stroke="none" 
	d="
M410.310974,352.763672 
	C404.041504,356.748993 397.931274,360.198212 392.046082,363.996124 
	C389.176117,365.848236 386.858459,365.971741 384.045227,363.991119 
	C381.222839,362.004028 378.096619,360.448578 374.898438,358.421936 
	C377.273285,353.033234 376.404816,347.528687 376.538910,342.139923 
	C376.608429,339.346497 376.353149,336.540619 376.983643,333.373047 
	C378.974792,330.202545 381.125610,332.058899 382.685974,333.046112 
	C386.581818,335.510925 390.050964,334.977875 393.805389,332.785217 
	C397.081360,330.871948 400.513397,329.192139 404.007202,327.686401 
	C405.799530,326.913940 407.648315,325.953156 409.978760,327.397522 
	C412.398041,335.901215 412.039642,344.129852 410.310974,352.763672 
z"/>
<path fill="#2094D1" opacity="1.000000" stroke="none" 
	d="
M377.913269,331.831665 
	C377.993164,338.814087 378.005829,345.423828 377.994781,352.033539 
	C377.990906,354.349060 378.125854,356.748016 375.091614,358.051331 
	C363.846680,351.991211 353.000031,345.842499 341.954285,339.411072 
	C343.928589,337.601868 344.018616,335.331268 344.009399,332.986328 
	C343.988159,327.578339 344.016907,322.170166 344.044342,316.281342 
	C345.188477,315.041870 346.327148,315.391998 347.376251,315.893372 
	C356.809479,320.401367 366.431091,324.518585 375.640289,329.490997 
	C376.522095,329.967072 377.322174,330.560394 377.913269,331.831665 
z"/>
<path fill="#0A67B0" opacity="1.000000" stroke="none" 
	d="
M144.830750,194.640091 
	C143.259903,204.661469 144.288513,214.497543 143.936493,224.770081 
	C139.631622,222.881866 135.179306,220.768845 131.125458,218.059586 
	C127.276382,215.487167 123.871719,214.827759 120.164352,218.056885 
	C119.195595,218.900665 117.906868,219.377090 116.407013,220.075668 
	C115.629295,210.242645 116.674202,200.327271 115.136139,190.175293 
	C114.905228,189.759308 114.978035,189.596863 115.100655,189.493576 
	C121.975052,183.704391 128.594925,182.437103 135.649734,189.606247 
	C137.915146,191.908371 141.602600,192.811142 144.830750,194.640091 
z"/>
<path fill="#25A2DB" opacity="1.000000" stroke="none" 
	d="
M410.409302,353.090027 
	C409.537323,344.698059 410.855347,336.187134 409.164093,327.373352 
	C408.664398,325.736298 409.520172,325.057556 410.398712,324.676910 
	C419.548462,320.712555 428.167084,315.656250 437.291229,311.644409 
	C437.909363,311.372589 438.581238,311.361023 439.586853,311.629883 
	C441.787384,319.230133 440.697723,326.800018 441.060181,334.788574 
	C430.976990,341.193054 420.868286,347.108429 410.409302,353.090027 
z"/>
<path fill="#157EC1" opacity="1.000000" stroke="none" 
	d="
M238.333511,225.767960 
	C237.997116,217.894394 238.002502,209.963867 237.997955,202.033356 
	C237.996826,200.059875 238.206161,198.048645 236.935944,195.807449 
	C242.730469,191.881516 248.816544,188.590149 254.598083,184.830475 
	C258.096466,182.555511 260.047333,185.321640 262.802612,186.668823 
	C264.140015,188.282639 264.515411,189.872101 264.544769,191.555222 
	C264.665771,198.482758 264.692017,205.411392 264.527130,212.337906 
	C264.484253,214.139526 264.378021,216.010147 262.159454,217.193359 
	C258.596527,215.086594 255.860489,215.448364 252.749954,217.526031 
	C248.244812,220.535278 243.381912,223.008911 238.333511,225.767960 
z"/>
<path fill="#2094D1" opacity="1.000000" stroke="none" 
	d="
M368.337830,195.872971 
	C370.572357,197.072586 369.958954,199.041077 369.977753,200.769928 
	C370.056580,208.010269 370.052032,215.251511 370.127380,222.989380 
	C370.090271,224.570953 369.493439,225.446945 368.580597,225.824936 
	C360.222748,229.285751 352.516754,234.105911 344.130402,237.498215 
	C343.677063,237.681580 343.156830,237.591888 342.349365,237.306396 
	C343.302521,228.724319 343.712219,220.344162 342.029602,211.550034 
	C350.684692,206.070831 359.341827,201.005539 368.337830,195.872971 
z"/>
<path fill="#1680C3" opacity="1.000000" stroke="none" 
	d="
M261.868622,217.450287 
	C263.599457,215.918640 262.962952,213.930801 262.975281,212.200958 
	C263.033051,204.099640 263.004242,195.997726 263.011505,187.424179 
	C268.648132,190.086945 274.256165,193.264999 279.925446,196.329636 
	C281.622620,197.247070 282.147614,198.485947 282.134277,200.341812 
	C282.067535,209.628082 282.103729,218.915085 282.103729,229.195877 
	C275.062531,225.163574 268.571350,221.446259 261.868622,217.450287 
z"/>
<path fill="#FDFEFF" opacity="1.000000" stroke="none" 
	d="
M341.796326,237.376404 
	C351.243469,232.711472 360.456024,228.318481 369.922668,223.705902 
	C374.346344,221.525955 378.697723,219.869919 382.633728,217.518570 
	C386.471741,215.225769 389.803955,215.071304 393.484070,217.602173 
	C395.087189,218.704666 397.043579,219.293503 399.172791,220.188416 
	C411.427216,226.159698 423.348328,232.058167 435.628479,238.002716 
	C439.474091,239.514343 440.320831,242.119110 440.153442,245.805283 
	C439.832214,252.881027 440.056152,259.981506 440.037598,267.540802 
	C437.579987,269.829285 435.683990,268.053925 433.749817,266.981018 
	C427.427612,263.473969 421.011230,260.167938 413.969818,257.303101 
	C406.265320,253.330460 398.715668,249.863876 391.355469,246.021591 
	C388.889343,244.734192 386.648071,244.955673 384.258118,246.203491 
	C380.144501,248.351212 375.970734,250.384842 371.719818,252.437653 
	C385.575195,259.711639 399.658417,266.278870 414.030823,273.078308 
	C421.420044,276.785248 428.384766,280.534119 435.614929,283.747467 
	C437.423828,284.551361 439.256531,285.339111 440.244385,287.612671 
	C440.162048,295.623291 440.078796,303.260712 439.959961,311.352051 
	C429.768280,316.692993 419.612213,321.580017 409.226837,326.727997 
	C404.108612,329.289520 399.010162,331.238556 394.390533,333.991119 
	C389.918030,336.656006 385.955872,336.854645 381.731049,333.906250 
	C380.796661,333.254181 379.696014,332.840332 378.330872,332.260559 
	C366.920959,326.774536 355.852112,321.344757 344.423279,315.857788 
	C342.786469,315.063019 341.581818,314.127014 340.217255,313.630676 
	C337.677185,312.706726 336.760925,311.177490 336.842072,308.402954 
	C337.050629,301.272278 337.027985,294.128723 336.861328,286.995850 
	C336.783203,283.653259 338.349640,284.527252 340.488342,285.448822 
	C346.489105,286.562561 351.276184,289.679901 356.396149,291.921326 
	C361.868866,294.317200 367.097260,297.269379 372.824677,299.988770 
	C374.181427,300.668518 375.193176,301.239716 376.227966,301.768219 
	C389.116272,308.350311 391.344360,308.145203 404.195343,298.944061 
	C393.824493,294.818939 384.528046,288.987366 374.057800,284.748169 
	C365.495361,279.630524 356.347504,276.502197 347.961792,271.835571 
	C346.095276,270.796844 343.970276,270.175842 342.276672,268.188782 
	C337.432190,266.250885 336.395294,262.883209 336.822235,258.293304 
	C337.232849,253.878677 337.214355,249.368881 336.820740,244.951111 
	C336.468231,240.994720 337.771759,238.651993 341.796326,237.376404 
z"/>
<path fill="#2094D1" opacity="1.000000" stroke="none" 
	d="
M373.305359,300.732971 
	C362.437408,296.045593 351.895020,291.010376 341.102356,285.775757 
	C342.737396,280.108185 341.762054,274.441528 342.021393,268.387817 
	C352.595978,272.963745 363.161499,278.011749 373.984680,283.270630 
	C374.813629,289.144073 375.088959,294.795959 373.305359,300.732971 
z"/>
<path fill="#25A2DB" opacity="1.000000" stroke="none" 
	d="
M413.659180,256.452271 
	C421.163025,259.012787 428.097076,262.418701 434.819427,266.254639 
	C436.221863,267.054901 437.585754,267.914032 439.639832,268.013214 
	C440.595032,268.581970 441.655945,269.144592 441.667297,269.727692 
	C441.784515,275.746490 443.056946,281.823486 440.620300,287.872681 
	C431.989532,282.834686 422.955200,279.194061 414.171112,274.387756 
	C411.369751,268.438599 412.132080,262.634918 413.659180,256.452271 
z"/>
<path fill="#229BD6" opacity="1.000000" stroke="none" 
	d="
M413.728424,255.858276 
	C413.991028,261.781738 413.987549,267.474426 413.971497,273.643188 
	C399.167297,267.098450 384.375671,260.077637 368.667999,252.622025 
	C375.216583,249.411743 380.931549,246.666306 386.585052,243.799622 
	C388.021576,243.071213 389.113586,243.582718 390.303772,244.171432 
	C398.023438,247.989868 405.742859,251.808762 413.728424,255.858276 
z"/>
<path fill="#229BD6" opacity="1.000000" stroke="none" 
	d="
M373.195099,301.345520 
	C373.474609,295.507599 372.003845,289.828552 374.062073,283.905640 
	C385.018738,288.641754 395.795074,293.802002 407.309753,299.315826 
	C401.073181,302.393036 395.593414,305.034058 390.179962,307.804657 
	C388.473083,308.678223 387.073303,308.362976 385.497284,307.558655 
	C381.498047,305.517578 377.443085,303.585754 373.195099,301.345520 
z"/>
</svg>